<?xml version="1.0" standalone="no"?>
<!DOCTYPE svg PUBLIC "-//W3C//DTD SVG 20010904//EN"
 "http://www.w3.org/TR/2001/REC-SVG-20010904/DTD/svg10.dtd">
<svg version="1.0" xmlns="http://www.w3.org/2000/svg"
 width="285.000000pt" height="285.000000pt" viewBox="0 0 285.000000 285.000000"
 preserveAspectRatio="xMidYMid meet">
<metadata>
Created by potrace 1.11, written by Peter Selinger 2001-2013
</metadata>
<g transform="translate(0.000000,285.000000) scale(0.100000,-0.100000)"
fill="#000000" stroke="none">
<path d="M1289 2846 c-2 -2 -29 -7 -59 -10 -307 -36 -630 -205 -853 -447 -183
-198 -324 -488 -362 -744 -13 -87 -12 -342 1 -430 87 -573 517 -1042 1079
-1175 44 -11 98 -22 120 -26 63 -10 339 -13 387 -4 23 5 63 11 87 15 121 18
310 88 444 165 288 164 525 449 635 760 56 160 76 278 76 455 1 170 -4 221
-29 331 -127 555 -563 977 -1126 1089 -73 15 -389 31 -400 21z m280 -141 c40
-3 76 -7 80 -9 3 -2 24 -7 45 -10 55 -9 200 -59 282 -97 438 -204 734 -664
736 -1143 1 -94 -9 -232 -17 -245 -1 -3 -6 -24 -9 -45 -9 -54 -60 -205 -97
-285 -44 -96 -147 -245 -226 -327 -145 -151 -288 -248 -474 -320 -283 -109
-585 -116 -875 -19 -325 108 -606 357 -752 665 -37 78 -89 231 -98 286 -3 21
-7 41 -9 44 -9 14 -18 156 -17 247 7 568 402 1074 952 1222 160 43 275 52 479
36z"/>
<path d="M794 1979 c-37 -11 -79 -50 -91 -87 -5 -15 -9 -229 -8 -477 1 -418 2
-452 19 -481 57 -96 199 -87 243 16 7 17 10 174 10 475 0 418 -1 453 -19 487
-27 56 -91 84 -154 67z"/>
<path d="M1977 1975 c-53 -18 -73 -39 -85 -88 -9 -34 -12 -847 -4 -928 3 -26
59 -77 97 -88 67 -18 145 27 163 95 4 16 7 229 7 474 -1 412 -3 448 -19 476
-34 57 -98 81 -159 59z"/>
<path d="M583 1755 c-39 -17 -63 -52 -70 -104 -4 -28 -9 -38 -19 -34 -24 9
-63 -6 -75 -29 -16 -29 -16 -296 0 -326 12 -23 51 -38 76 -28 11 4 15 -2 15
-27 0 -18 9 -46 20 -64 17 -29 65 -63 89 -63 6 0 10 128 10 345 0 190 -3 345
-7 345 -4 -1 -21 -7 -39 -15z"/>
<path d="M2222 1425 c0 -205 4 -345 10 -345 5 0 22 7 39 15 38 20 69 70 69
112 0 25 4 31 15 27 25 -10 64 5 76 28 16 30 18 282 2 319 -12 29 -50 46 -78
35 -11 -4 -15 2 -15 27 0 42 -31 92 -69 112 -17 8 -34 15 -39 15 -6 0 -10
-138 -10 -345z"/>
<path d="M1034 1425 l0 -135 390 0 391 0 0 135 0 135 -390 0 -390 0 -1 -135z"/>
</g>
</svg>
