<?xml version="1.0" encoding="UTF-8" standalone="no"?>
<!-- Created with Inkscape (http://www.inkscape.org/) -->

<svg
   xmlns:dc="http://purl.org/dc/elements/1.1/"
   xmlns:cc="http://creativecommons.org/ns#"
   xmlns:rdf="http://www.w3.org/1999/02/22-rdf-syntax-ns#"
   xmlns:svg="http://www.w3.org/2000/svg"
   xmlns="http://www.w3.org/2000/svg"
   xmlns:sodipodi="http://sodipodi.sourceforge.net/DTD/sodipodi-0.dtd"
   xmlns:inkscape="http://www.inkscape.org/namespaces/inkscape"
   width="142.32721mm"
   height="43.707191mm"
   viewBox="0 0 504.30901 154.868"
   id="svg3561"
   version="1.1"
   inkscape:version="0.91 r13725"
   sodipodi:docname="DjakLogo1.svg">
  <defs
     id="defs3563" />
  <sodipodi:namedview
     id="base"
     pagecolor="#ffffff"
     bordercolor="#666666"
     borderopacity="1.0"
     inkscape:pageopacity="0.0"
     inkscape:pageshadow="2"
     inkscape:zoom="0.35"
     inkscape:cx="281.44021"
     inkscape:cy="26.005425"
     inkscape:document-units="px"
     inkscape:current-layer="layer1"
     showgrid="false"
     fit-margin-top="0"
     fit-margin-left="0"
     fit-margin-right="0"
     fit-margin-bottom="0"
     inkscape:window-width="1280"
     inkscape:window-height="748"
     inkscape:window-x="-8"
     inkscape:window-y="-8"
     inkscape:window-maximized="1" />
  <metadata
     id="metadata3566">
    <rdf:RDF>
      <cc:Work
         rdf:about="">
        <dc:format>image/svg+xml</dc:format>
        <dc:type
           rdf:resource="http://purl.org/dc/dcmitype/StillImage" />
        <dc:title></dc:title>
      </cc:Work>
    </rdf:RDF>
  </metadata>
  <g
     inkscape:label="Layer 1"
     inkscape:groupmode="layer"
     id="layer1"
     transform="translate(-93.559786,-403.49963)">
    <g
       id="g3570"
       transform="translate(43.428786,360.89863)">
      <g
         id="g3572">
        <g
           id="g3574">
          <path
             id="path3576"
             d="m 288.05,108.853 14.649,-0.026 c 2.573,0 4.643,1.107 6.198,3.337 0.671,1.153 0.823,2.647 0.438,4.483 l -0.194,0.947 -0.148,0.123 -10.96,0.018 -0.099,-0.122 c 0.293,-1.414 0.175,-2.253 -0.358,-2.508 -0.298,-0.238 -0.809,-0.358 -1.548,-0.358 l -3.572,0.011 c -1.833,0.004 -2.874,0.584 -3.121,1.733 l -0.008,0.059 c -0.152,0.745 0.137,1.266 0.869,1.55 8.123,1.238 12.949,2.103 14.485,2.609 2.89,0.987 4.056,2.756 3.526,5.306 l -0.706,3.404 c -0.441,2.119 -2.123,3.993 -5.047,5.617 -1.616,0.836 -3.503,1.256 -5.642,1.256 l -13.402,0.026 c -4.331,0.006 -6.965,-1.704 -7.891,-5.129 -0.076,-0.821 -0.023,-1.656 0.148,-2.499 l 0.431,-2.096 0.152,-0.12 10.956,-0.01 0.099,0.118 -0.099,0.479 c -0.355,1.709 0.449,2.563 2.416,2.563 l 4.251,-0.008 c 1.288,-0.002 2.222,-0.463 2.794,-1.376 l 0.122,-0.599 c 0.175,-0.835 -0.435,-1.43 -1.822,-1.784 -7.574,-1.111 -12.214,-1.963 -13.929,-2.554 -1.952,-0.831 -3.054,-1.883 -3.29,-3.154 -0.095,-0.536 -0.058,-1.195 0.099,-1.973 l 0.359,-1.73 c 0.728,-3.515 3.277,-5.947 7.65,-7.296 0.894,-0.198 1.625,-0.297 2.194,-0.297 z"
             inkscape:connector-curvature="0"
             style="fill:#b3b2b1" />
          <path
             id="path3578"
             d="m 315.454,108.815 25.86,-0.038 c 2.47,-0.002 4.128,1.029 4.993,3.095 0.198,0.866 0.236,1.586 0.118,2.152 l -1.475,7.104 c -0.396,1.918 -1.769,3.517 -4.125,4.782 -1.296,0.593 -2.55,0.901 -3.747,0.901 l -14.405,0.02 -0.152,0.118 -1.91,9.194 -0.148,0.122 -10.704,0.011 -0.099,-0.114 5.642,-27.234 0.152,-0.113 z m 9.488,6.789 -0.919,4.418 9.644,-0.016 c 1.145,0 1.938,-0.399 2.371,-1.192 l 0.42,-2.03 c 0.13,-0.619 -0.427,-1.016 -1.688,-1.191 l -9.828,0.011 z"
             inkscape:connector-curvature="0"
             style="fill:#b3b2b1" />
          <path
             id="path3580"
             d="m 359.04,108.754 15.533,-0.023 c 2.402,-0.006 4.392,0.985 5.951,2.974 0.812,1.322 1.098,2.558 0.854,3.693 l -2.89,13.918 c -0.435,2.119 -2.111,3.996 -5.039,5.618 -1.628,0.841 -3.511,1.26 -5.653,1.264 l -13.396,0.02 c -4.33,0.006 -6.956,-1.702 -7.879,-5.121 -0.092,-0.83 -0.042,-1.662 0.134,-2.505 l 2.542,-12.248 c 0.732,-3.537 3.309,-5.972 7.708,-7.292 0.808,-0.199 1.521,-0.298 2.135,-0.298 z m 1.17,8.531 -2.001,9.61 c -0.29,1.426 -0.02,2.299 0.831,2.626 l 6.641,-0.007 c 0.953,0 1.665,-0.818 2.135,-2.447 l 2.035,-9.797 c 0.366,-1.752 -0.061,-2.625 -1.27,-2.625 l -6.008,0.008 c -1.216,0.002 -2.001,0.881 -2.363,2.632 z"
             inkscape:connector-curvature="0"
             style="fill:#b3b2b1" />
          <path
             id="path3582"
             d="m 386.101,108.707 25.868,-0.032 c 2.161,0 3.743,0.83 4.734,2.504 0.48,0.887 0.538,2.205 0.179,3.936 l -1.06,5.137 c -0.64,3.063 -2.604,5.12 -5.912,6.16 l -0.015,0.058 4.098,9.541 -0.156,0.124 -11.272,0.016 c -0.217,-0.288 -1.57,-3.414 -4.06,-9.364 l -0.05,-0.065 -5.135,0.008 -0.152,0.118 -1.905,9.2 -0.153,0.12 -10.7,0.012 -0.103,-0.118 5.646,-27.232 0.148,-0.123 z m 9.484,6.797 -0.911,4.419 9.633,-0.016 c 1.151,0 1.944,-0.402 2.379,-1.201 l 0.423,-2.023 c 0.13,-0.622 -0.435,-1.015 -1.692,-1.193 l -9.832,0.014 z"
             inkscape:connector-curvature="0"
             style="fill:#b3b2b1" />
          <path
             id="path3584"
             d="m 422.936,108.657 32.817,-0.04 0.096,0.114 -1.175,5.676 -0.16,0.122 -10.887,0.008 -4.456,21.438 -0.145,0.12 -10.708,0.013 -0.1,-0.115 4.449,-21.438 -10.964,0.012 -0.099,-0.114 1.178,-5.676 0.154,-0.12 z"
             inkscape:connector-curvature="0"
             style="fill:#b3b2b1" />
          <path
             id="path3586"
             d="m 467.33,108.598 14.656,-0.023 c 2.573,0 4.636,1.109 6.19,3.332 0.675,1.158 0.828,2.648 0.45,4.48 l -0.202,0.951 -0.145,0.122 -10.959,0.017 -0.104,-0.117 c 0.294,-1.419 0.176,-2.25 -0.358,-2.507 -0.293,-0.242 -0.808,-0.358 -1.548,-0.358 l -3.575,0.002 c -1.837,0 -2.874,0.585 -3.11,1.736 l -0.016,0.064 c -0.152,0.746 0.134,1.257 0.865,1.55 8.131,1.229 12.953,2.103 14.485,2.607 2.882,0.989 4.06,2.754 3.53,5.305 l -0.705,3.398 c -0.442,2.125 -2.119,4 -5.043,5.62 -1.628,0.843 -3.508,1.262 -5.653,1.268 l -13.392,0.014 c -4.334,0.008 -6.965,-1.696 -7.895,-5.114 -0.08,-0.829 -0.026,-1.667 0.145,-2.514 l 0.438,-2.085 0.148,-0.126 10.96,-0.016 0.095,0.122 -0.095,0.473 c -0.358,1.718 0.445,2.575 2.405,2.565 l 4.262,-0.005 c 1.288,0 2.207,-0.458 2.79,-1.371 l 0.122,-0.6 c 0.18,-0.839 -0.435,-1.432 -1.822,-1.794 -7.57,-1.102 -12.221,-1.948 -13.929,-2.545 -1.951,-0.829 -3.053,-1.883 -3.286,-3.16 -0.099,-0.531 -0.068,-1.186 0.096,-1.969 l 0.362,-1.73 c 0.724,-3.511 3.274,-5.942 7.654,-7.292 0.891,-0.203 1.624,-0.3 2.184,-0.3 z"
             inkscape:connector-curvature="0"
             style="fill:#b3b2b1" />
          <path
             id="path3588"
             d="m 494.729,108.617 10.704,-0.012 0.1,0.114 -2.371,11.406 10.597,-11.533 10.712,-0.018 0.1,0.12 c -6.354,6.897 -10.193,11.119 -11.517,12.669 l -0.011,0.063 7.006,14.491 -0.076,0.06 -11.275,0.021 c -0.168,-0.129 -1.197,-2.218 -3.08,-6.267 -1.982,-3.985 -2.996,-6.114 -3.058,-6.381 l -0.061,0 -2.6,12.541 -0.152,0.118 -10.712,0.016 -0.096,-0.118 5.638,-27.172 0.152,-0.118 z"
             inkscape:connector-curvature="0"
             style="fill:#b3b2b1" />
          <path
             id="path3590"
             d="m 553.243,108.475 c 0.092,0 0.145,1.015 0.176,3.039 0.595,12.827 0.926,20.95 1.021,24.357 l -0.08,0.062 -10.895,0.012 c -0.134,0.004 -0.08,-1.456 0.152,-4.354 -0.05,0 -0.057,-0.162 -0.026,-0.482 l -7.51,0.016 c -0.106,0 -0.571,1.254 -1.403,3.761 -0.267,0.713 -0.445,1.078 -0.541,1.078 l -10.955,0.012 c 0.739,-1.76 4.917,-10.921 12.529,-27.473 l 17.532,-0.028 z m -10.322,7.472 -3.522,8.245 3.693,-0.005 -0.103,-8.24 -0.068,0 z"
             inkscape:connector-curvature="0"
             style="fill:#b3b2b1" />
        </g>
        <g
           id="g3592">
          <path
             id="path3594"
             d="m 281.44,145.89 15.525,-0.03 c 2.417,0 4.396,0.99 5.958,2.973 0.813,1.323 1.095,2.565 0.858,3.709 l -2.894,13.906 c -0.438,2.123 -2.119,3.991 -5.043,5.619 -1.628,0.842 -3.504,1.254 -5.649,1.262 l -13.396,0.019 c -4.334,0.008 -6.961,-1.7 -7.891,-5.119 -0.076,-0.823 -0.026,-1.662 0.145,-2.509 l 2.543,-12.24 c 0.735,-3.541 3.305,-5.977 7.712,-7.296 0.801,-0.195 1.506,-0.294 2.132,-0.294 z m 1.17,8.527 -1.994,9.613 c -0.297,1.43 -0.019,2.295 0.835,2.623 l 6.626,-0.004 c 0.952,-0.008 1.665,-0.823 2.142,-2.455 l 2.032,-9.789 c 0.369,-1.75 -0.062,-2.63 -1.27,-2.626 l -6.016,0.007 c -1.207,0.001 -1.996,0.881 -2.355,2.631 z"
             inkscape:connector-curvature="0"
             style="fill:#b3b2b1" />
          <path
             id="path3596"
             d="m 308.505,145.844 25.86,-0.034 c 2.462,-0.008 4.128,1.025 4.986,3.095 0.202,0.865 0.239,1.582 0.118,2.146 l -1.472,7.105 c -0.404,1.929 -1.776,3.511 -4.125,4.784 -1.304,0.595 -2.558,0.899 -3.759,0.899 l -14.397,0.023 -0.148,0.117 -1.906,9.202 -0.152,0.114 -10.712,0.008 -0.099,-0.114 5.653,-27.232 0.153,-0.113 z m 9.48,6.793 -0.919,4.414 9.641,-0.008 c 1.147,0 1.944,-0.396 2.379,-1.204 l 0.427,-2.028 c 0.122,-0.617 -0.438,-1.014 -1.7,-1.186 l -9.828,0.012 z"
             inkscape:connector-curvature="0"
             style="fill:#b3b2b1" />
          <path
             id="path3598"
             d="m 343.944,145.791 25.86,-0.03 c 2.177,0 3.743,0.827 4.734,2.493 0.484,0.899 0.545,2.211 0.187,3.941 l -1.063,5.135 c -0.64,3.068 -2.614,5.112 -5.908,6.16 l -0.015,0.058 4.086,9.545 -0.148,0.122 -11.272,0.015 c -0.217,-0.289 -1.574,-3.408 -4.063,-9.365 l -0.046,-0.054 -5.135,0.004 -0.152,0.114 -1.909,9.194 -0.152,0.122 -10.712,0.016 -0.096,-0.115 5.653,-27.232 0.151,-0.123 z m 9.485,6.792 -0.923,4.422 9.652,-0.015 c 1.144,0 1.933,-0.4 2.367,-1.193 l 0.423,-2.036 c 0.13,-0.617 -0.435,-1.01 -1.692,-1.192 l -9.827,0.014 z"
             inkscape:connector-curvature="0"
             style="fill:#b3b2b1" />
          <path
             id="path3600"
             d="m 380.783,145.745 27.106,-0.041 0.1,0.117 -1.178,5.677 -0.152,0.122 -16.273,0.015 -0.747,3.587 15.03,-0.026 0.099,0.126 -1.342,6.446 -0.145,0.118 -15.026,0.022 -0.957,4.597 16.281,-0.026 0.099,0.122 -1.338,6.454 -0.152,0.114 -27.114,0.042 -0.1,-0.118 5.657,-27.229 0.152,-0.119 z"
             inkscape:connector-curvature="0"
             style="fill:#b3b2b1" />
          <path
             id="path3602"
             d="m 410.845,145.7 13.28,-0.016 c 0.309,0.511 1.266,2.844 2.866,6.983 l 2.601,6.431 0.068,0 10.989,-13.437 13.281,-0.023 0.104,0.122 -5.653,27.225 -0.156,0.115 -10.647,0.019 -0.096,-0.119 2.74,-13.197 -0.061,0 -10.914,13.327 -5.005,0.007 c -0.225,-0.267 -1.54,-3.483 -3.941,-9.667 l -1.563,-3.64 -2.741,13.204 -0.138,0.114 -10.715,0.02 -0.096,-0.122 5.649,-27.226 0.148,-0.12 z"
             inkscape:connector-curvature="0"
             style="fill:#b3b2b1" />
          <path
             id="path3604"
             d="m 481.647,145.6 c 0.099,0 0.152,1.018 0.187,3.042 0.587,12.823 0.927,20.939 1.018,24.354 l -0.076,0.058 -10.898,0.015 c -0.133,0 -0.079,-1.452 0.157,-4.36 -0.054,0 -0.062,-0.16 -0.023,-0.469 l -7.518,0.011 c -0.106,0 -0.571,1.251 -1.406,3.759 -0.263,0.713 -0.446,1.075 -0.541,1.075 l -10.948,0.012 c 0.735,-1.758 4.914,-10.914 12.522,-27.473 l 17.526,-0.024 z m -10.315,7.472 -3.522,8.249 3.694,-0.016 -0.106,-8.233 -0.066,0 z"
             inkscape:connector-curvature="0"
             style="fill:#b3b2b1" />
        </g>
        <g
           id="g3606">
          <path
             id="path3608"
             d="m 347.589,72.542 c 0.088,0 0.148,1.016 0.183,3.042 0.587,12.825 0.923,20.946 1.007,24.358 l -0.068,0.059 -10.898,0.016 c -0.134,0 -0.088,-1.452 0.152,-4.361 -0.054,0 -0.058,-0.158 -0.02,-0.477 l -7.517,0.01 c -0.104,0 -0.572,1.252 -1.407,3.765 -0.267,0.721 -0.438,1.074 -0.537,1.074 l -10.963,0.018 c 0.751,-1.759 4.921,-10.923 12.537,-27.477 l 17.531,-0.027 z m -10.319,7.477 -3.533,8.244 3.701,-0.01 -0.103,-8.234 -0.065,0 z"
             inkscape:connector-curvature="0"
             style="fill:#b3b2b1" />
          <path
             id="path3610"
             d="m 356.555,72.594 10.708,-0.02 0.103,0.12 -2.371,11.407 10.597,-11.545 10.704,-0.009 0.107,0.122 c -6.358,6.89 -10.201,11.115 -11.523,12.667 l -0.012,0.063 7.006,14.495 -0.068,0.059 -11.283,0.016 c -0.164,-0.13 -1.189,-2.217 -3.076,-6.263 -1.971,-3.987 -2.992,-6.112 -3.05,-6.388 l -0.064,0 -2.607,12.546 -0.152,0.114 -10.704,0.015 -0.092,-0.116 5.627,-27.167 0.15,-0.116 z"
             inkscape:connector-curvature="0"
             style="fill:#b3b2b1" />
          <path
             id="path3612"
             d="m 318.595,75.449 c -1.65,-1.907 -3.583,-2.854 -5.79,-2.853 l -27.587,0.032 2.149,8.822 18.961,0 c 1.007,0.202 1.346,1.085 1.025,2.632 l -1.414,6.778 c -0.473,1.677 -1.186,2.516 -2.15,2.516 l -8.013,0.01 2.032,-9.811 -17.085,0 2.496,9.641 1.575,0.008 -1.399,6.747 0.1,0.122 22.41,-0.038 c 2.146,0 4.025,-0.412 5.653,-1.25 2.92,-1.632 4.604,-3.502 5.047,-5.625 l 2.886,-13.914 c 0.233,-1.13 -0.065,-2.406 -0.896,-3.817 z"
             inkscape:connector-curvature="0"
             style="fill:#b3b2b1" />
        </g>
      </g>
      <polygon
         id="polygon3614"
         points="50.131,197.469 79.732,42.601 255.713,42.601 226.109,197.469 "
         style="fill:#eb1c2d" />
      <path
         id="path3616"
         d="m 104.436,70.962 c -2.42,12.126 -4.833,24.274 -7.248,36.396 134.019,-27.492 82.252,4.822 38.892,16.216 0.455,-4.045 2.097,-12.377 2.097,-12.377 l -57.067,11.405 9.69,22.364 c 0,0 -3.106,17.954 -6.183,32.005 C 236.958,130.112 296.333,48.405 104.436,70.962 l 0,0 z"
         inkscape:connector-curvature="0"
         style="clip-rule:evenodd;fill:#ffffff;fill-rule:evenodd" />
    </g>
  </g>
</svg>
